<svg width="163" height="52" viewBox="0 0 163 52" fill="none" xmlns="http://www.w3.org/2000/svg">
<path d="M13.784 27.978H8.978C8.774 28.47 8.6 28.908 8.456 29.292C8.312 29.664 8.192 29.988 8.096 30.264C8.012 30.54 7.952 30.774 7.916 30.966C7.88 31.158 7.862 31.314 7.862 31.434C7.862 31.77 7.97 32.004 8.186 32.136C8.402 32.256 8.762 32.316 9.266 32.316V33H4.892V32.316C5.168 32.28 5.402 32.232 5.594 32.172C5.798 32.112 5.972 32.028 6.116 31.92C6.272 31.812 6.404 31.674 6.512 31.506C6.632 31.326 6.746 31.11 6.854 30.858L11.534 19.14H12.308L16.394 29.292C16.67 29.964 16.91 30.504 17.114 30.912C17.318 31.308 17.516 31.608 17.708 31.812C17.9 32.016 18.104 32.148 18.32 32.208C18.548 32.268 18.818 32.298 19.13 32.298V33H13.262V32.298C13.898 32.298 14.336 32.238 14.576 32.118C14.816 31.998 14.936 31.8 14.936 31.524C14.936 31.404 14.93 31.296 14.918 31.2C14.906 31.092 14.882 30.978 14.846 30.858C14.822 30.738 14.78 30.606 14.72 30.462C14.672 30.306 14.606 30.126 14.522 29.922L13.784 27.978ZM9.338 27.078H13.442L11.444 21.768L9.338 27.078ZM22.3063 30.192C22.3063 30.648 22.3243 31.014 22.3603 31.29C22.3963 31.566 22.4683 31.782 22.5763 31.938C22.6963 32.094 22.8583 32.202 23.0623 32.262C23.2783 32.322 23.5603 32.358 23.9083 32.37V33H18.9403V32.37C19.3003 32.358 19.5883 32.322 19.8043 32.262C20.0203 32.19 20.1883 32.082 20.3083 31.938C20.4403 31.794 20.5243 31.596 20.5603 31.344C20.6083 31.08 20.6323 30.738 20.6323 30.318V22.56C20.6323 21.912 20.6203 21.372 20.5963 20.94C20.5843 20.496 20.5603 20.196 20.5243 20.04C20.4643 19.764 20.3203 19.578 20.0923 19.482C19.8763 19.386 19.4803 19.338 18.9043 19.338V18.726L22.3063 18.06V30.192ZM32.3898 31.488H32.3178C31.8858 32.1 31.4238 32.538 30.9318 32.802C30.4518 33.054 29.8818 33.18 29.2218 33.18C28.5378 33.18 27.9078 33.06 27.3318 32.82C26.7678 32.568 26.2758 32.226 25.8558 31.794C25.4478 31.35 25.1238 30.822 24.8838 30.21C24.6558 29.598 24.5418 28.932 24.5418 28.212C24.5418 27.504 24.6558 26.85 24.8838 26.25C25.1238 25.638 25.4478 25.116 25.8558 24.684C26.2758 24.24 26.7738 23.898 27.3498 23.658C27.9258 23.406 28.5498 23.28 29.2218 23.28C29.7978 23.28 30.3078 23.376 30.7518 23.568C31.2078 23.76 31.6458 24.066 32.0658 24.486V22.65C32.0658 21.966 32.0538 21.396 32.0298 20.94C32.0178 20.484 31.9938 20.172 31.9578 20.004C31.8978 19.74 31.7298 19.554 31.4538 19.446C31.1778 19.338 30.7278 19.284 30.1038 19.284V18.744L33.7938 18.06V28.446C33.7938 29.274 33.7998 29.958 33.8118 30.498C33.8238 31.026 33.8598 31.404 33.9198 31.632C33.9558 31.776 33.9978 31.896 34.0458 31.992C34.1058 32.088 34.1838 32.166 34.2798 32.226C34.3878 32.274 34.5258 32.31 34.6938 32.334C34.8738 32.358 35.1018 32.37 35.3778 32.37V32.982L32.3898 33.18V31.488ZM32.0298 27.51C32.0298 26.886 31.9938 26.412 31.9218 26.088C31.8618 25.764 31.7358 25.482 31.5438 25.242C31.2678 24.882 30.9138 24.612 30.4818 24.432C30.0618 24.24 29.6418 24.144 29.2218 24.144C28.3578 24.144 27.6978 24.504 27.2418 25.224C26.7978 25.932 26.5758 26.898 26.5758 28.122C26.5758 28.758 26.6298 29.334 26.7378 29.85C26.8578 30.366 27.0258 30.81 27.2418 31.182C27.4698 31.542 27.7458 31.824 28.0698 32.028C28.4058 32.22 28.7898 32.316 29.2218 32.316C29.4378 32.316 29.6538 32.292 29.8698 32.244C30.0978 32.196 30.3138 32.124 30.5178 32.028C30.7338 31.92 30.9318 31.8 31.1118 31.668C31.2918 31.524 31.4418 31.362 31.5618 31.182C31.7298 30.918 31.8498 30.6 31.9218 30.228C31.9938 29.856 32.0298 29.346 32.0298 28.698V27.51ZM44.5003 31.326C43.4803 32.562 42.2143 33.18 40.7023 33.18C39.9943 33.18 39.3523 33.066 38.7763 32.838C38.2003 32.598 37.7023 32.268 37.2823 31.848C36.8743 31.416 36.5563 30.906 36.3283 30.318C36.1003 29.718 35.9863 29.058 35.9863 28.338C35.9863 27.606 36.1063 26.928 36.3463 26.304C36.5863 25.68 36.9223 25.146 37.3543 24.702C37.7983 24.258 38.3203 23.91 38.9203 23.658C39.5323 23.406 40.1983 23.28 40.9183 23.28C42.0823 23.28 42.9823 23.598 43.6183 24.234C44.2543 24.858 44.5723 25.758 44.5723 26.934C44.5723 27.102 44.5363 27.204 44.4643 27.24C44.4043 27.276 44.2543 27.294 44.0143 27.294H38.0923C38.0683 27.39 38.0503 27.51 38.0383 27.654C38.0263 27.786 38.0203 27.936 38.0203 28.104C38.0203 28.728 38.0923 29.298 38.2363 29.814C38.3923 30.318 38.6083 30.75 38.8843 31.11C39.1723 31.47 39.5083 31.752 39.8923 31.956C40.2883 32.148 40.7263 32.244 41.2063 32.244C41.7103 32.244 42.1783 32.136 42.6103 31.92C43.0423 31.692 43.4863 31.326 43.9423 30.822L44.5003 31.326ZM41.5303 26.466C41.7703 26.466 41.9623 26.46 42.1063 26.448C42.2503 26.436 42.3583 26.412 42.4303 26.376C42.5023 26.34 42.5503 26.292 42.5743 26.232C42.5983 26.16 42.6103 26.07 42.6103 25.962C42.6103 25.41 42.4303 24.972 42.0703 24.648C41.7223 24.312 41.2423 24.144 40.6303 24.144C39.3343 24.144 38.5303 24.918 38.2183 26.466H41.5303ZM49.0587 30.138C49.0587 30.63 49.0707 31.02 49.0947 31.308C49.1187 31.596 49.1787 31.818 49.2747 31.974C49.3827 32.118 49.5327 32.214 49.7247 32.262C49.9167 32.31 50.1867 32.346 50.5347 32.37V33H45.7467V32.37C46.0947 32.358 46.3707 32.328 46.5747 32.28C46.7787 32.22 46.9347 32.118 47.0427 31.974C47.1507 31.83 47.2167 31.626 47.2407 31.362C47.2767 31.086 47.2947 30.72 47.2947 30.264V28.158C47.2947 27.342 47.2827 26.706 47.2587 26.25C47.2467 25.794 47.1867 25.458 47.0787 25.242C46.9827 25.026 46.8267 24.9 46.6107 24.864C46.3947 24.816 46.0947 24.792 45.7107 24.792V24.162L48.8607 23.478L49.1127 25.71H49.1847C49.3407 25.35 49.5327 25.02 49.7607 24.72C50.0007 24.42 50.2587 24.168 50.5347 23.964C50.8107 23.748 51.0987 23.58 51.3987 23.46C51.6987 23.34 52.0047 23.28 52.3167 23.28C52.7007 23.28 53.0007 23.376 53.2167 23.568C53.4447 23.748 53.5587 23.994 53.5587 24.306C53.5587 24.594 53.4687 24.822 53.2887 24.99C53.1087 25.146 52.8507 25.224 52.5147 25.224C52.3227 25.224 52.1607 25.2 52.0287 25.152C51.8967 25.104 51.7767 25.056 51.6687 25.008C51.5727 24.948 51.4767 24.894 51.3807 24.846C51.2967 24.798 51.2007 24.774 51.0927 24.774C50.7687 24.774 50.4447 24.984 50.1207 25.404C49.7967 25.812 49.5447 26.334 49.3647 26.97C49.2687 27.318 49.1907 27.714 49.1307 28.158C49.0827 28.59 49.0587 29.046 49.0587 29.526V30.138ZM57.2588 30.12C57.2588 30.624 57.2708 31.02 57.2948 31.308C57.3188 31.596 57.3788 31.818 57.4748 31.974C57.5828 32.118 57.7328 32.214 57.9248 32.262C58.1168 32.31 58.3868 32.346 58.7348 32.37V33H53.9468V32.37C54.2948 32.346 54.5708 32.31 54.7748 32.262C54.9788 32.214 55.1348 32.118 55.2428 31.974C55.3508 31.83 55.4168 31.626 55.4408 31.362C55.4768 31.086 55.4948 30.72 55.4948 30.264V27.96C55.4948 27.276 55.4828 26.706 55.4588 26.25C55.4468 25.794 55.4168 25.482 55.3688 25.314C55.3328 25.158 55.2908 25.038 55.2428 24.954C55.1948 24.858 55.1168 24.786 55.0088 24.738C54.9008 24.678 54.7568 24.642 54.5768 24.63C54.4088 24.606 54.1868 24.594 53.9108 24.594V23.964L56.8448 23.28L57.0788 25.08H57.1688C57.7088 24.468 58.2728 24.018 58.8608 23.73C59.4608 23.43 60.1208 23.28 60.8408 23.28C61.5968 23.28 62.2328 23.436 62.7488 23.748C63.2648 24.048 63.6248 24.486 63.8288 25.062H63.9008C64.3448 24.498 64.8848 24.06 65.5208 23.748C66.1568 23.436 66.8348 23.28 67.5548 23.28C68.1188 23.28 68.6288 23.376 69.0848 23.568C69.5528 23.748 69.9068 24 70.1468 24.324C70.3628 24.6 70.5128 24.966 70.5968 25.422C70.6928 25.866 70.7408 26.478 70.7408 27.258V30.12C70.7408 30.612 70.7528 31.002 70.7768 31.29C70.8128 31.578 70.8788 31.8 70.9748 31.956C71.0708 32.112 71.2148 32.214 71.4068 32.262C71.6108 32.31 71.8868 32.346 72.2348 32.37V33H67.4468V32.37C67.7828 32.358 68.0528 32.328 68.2568 32.28C68.4608 32.22 68.6168 32.118 68.7248 31.974C68.8328 31.818 68.8988 31.608 68.9228 31.344C68.9588 31.08 68.9768 30.72 68.9768 30.264V27.996C68.9768 27.312 68.9408 26.736 68.8688 26.268C68.7968 25.788 68.6768 25.404 68.5088 25.116C68.3408 24.816 68.1188 24.6 67.8428 24.468C67.5788 24.336 67.2548 24.27 66.8708 24.27C66.3428 24.27 65.8448 24.42 65.3768 24.72C64.9208 25.008 64.5608 25.398 64.2968 25.89C64.2368 26.01 64.1828 26.13 64.1348 26.25C64.0988 26.358 64.0688 26.484 64.0448 26.628C64.0208 26.76 64.0028 26.922 63.9908 27.114C63.9908 27.306 63.9908 27.546 63.9908 27.834V30.12C63.9908 30.612 64.0028 31.002 64.0268 31.29C64.0508 31.578 64.1108 31.8 64.2068 31.956C64.3148 32.112 64.4708 32.214 64.6748 32.262C64.8788 32.31 65.1548 32.346 65.5028 32.37V33H60.7148V32.37C61.0508 32.346 61.3208 32.31 61.5248 32.262C61.7288 32.214 61.8788 32.118 61.9748 31.974C62.0828 31.83 62.1488 31.626 62.1728 31.362C62.2088 31.086 62.2268 30.72 62.2268 30.264V27.996C62.2268 27.3 62.1908 26.718 62.1188 26.25C62.0468 25.77 61.9268 25.386 61.7588 25.098C61.6028 24.798 61.3928 24.588 61.1288 24.468C60.8648 24.336 60.5408 24.27 60.1568 24.27C59.6168 24.27 59.1068 24.42 58.6268 24.72C58.1588 25.008 57.8048 25.398 57.5648 25.89C57.5048 26.01 57.4508 26.13 57.4028 26.25C57.3668 26.358 57.3368 26.484 57.3128 26.628C57.2888 26.76 57.2708 26.922 57.2588 27.114C57.2588 27.306 57.2588 27.546 57.2588 27.834V30.12ZM78.5211 27.672C77.8371 27.936 77.2551 28.194 76.7751 28.446C76.3071 28.698 75.9291 28.95 75.6411 29.202C75.3531 29.454 75.1431 29.706 75.0111 29.958C74.8911 30.21 74.8311 30.468 74.8311 30.732C74.8311 31.128 74.9631 31.452 75.2271 31.704C75.4911 31.956 75.8391 32.082 76.2711 32.082C76.5831 32.082 76.8711 32.004 77.1351 31.848C77.4111 31.692 77.6511 31.482 77.8551 31.218C78.0591 30.942 78.2211 30.624 78.3411 30.264C78.4611 29.892 78.5211 29.502 78.5211 29.094V27.672ZM78.5211 26.898V26.16C78.5211 24.696 77.8971 23.964 76.6491 23.964C76.4451 23.964 76.2711 23.982 76.1271 24.018C75.9831 24.054 75.8631 24.114 75.7671 24.198C75.6711 24.282 75.5811 24.402 75.4971 24.558C75.4251 24.714 75.3531 24.906 75.2811 25.134C75.1491 25.482 75.0171 25.716 74.8851 25.836C74.7651 25.944 74.5851 25.998 74.3451 25.998C73.7451 25.998 73.4451 25.698 73.4451 25.098C73.4451 24.522 73.7511 24.078 74.3631 23.766C74.9751 23.442 75.8451 23.28 76.9731 23.28C78.1731 23.28 79.0251 23.496 79.5291 23.928C80.0331 24.348 80.2851 25.068 80.2851 26.088V30.12C80.2851 31.488 80.5551 32.172 81.0951 32.172C81.2631 32.172 81.4251 32.154 81.5811 32.118C81.7371 32.07 81.8691 31.956 81.9771 31.776L82.2291 32.208C82.0851 32.484 81.8211 32.718 81.4371 32.91C81.0531 33.09 80.6511 33.18 80.2311 33.18C79.7031 33.18 79.3071 33.012 79.0431 32.676C78.7911 32.34 78.6651 31.866 78.6651 31.254H78.5751C78.2631 31.842 77.8311 32.31 77.2791 32.658C76.7271 32.994 76.1151 33.162 75.4431 33.162C74.6871 33.162 74.0931 32.97 73.6611 32.586C73.2291 32.202 73.0131 31.686 73.0131 31.038C73.0131 30.75 73.0611 30.474 73.1571 30.21C73.2651 29.946 73.4331 29.694 73.6611 29.454C73.8891 29.214 74.1891 28.98 74.5611 28.752C74.9331 28.512 75.3891 28.272 75.9291 28.032L78.5211 26.898ZM85.7339 30.174C85.7339 30.666 85.7459 31.056 85.7699 31.344C85.7939 31.62 85.8539 31.836 85.9499 31.992C86.0579 32.136 86.2079 32.232 86.3999 32.28C86.6039 32.328 86.8799 32.364 87.2279 32.388V33H82.5119V32.388C82.8479 32.364 83.1119 32.328 83.3039 32.28C83.5079 32.232 83.6639 32.136 83.7719 31.992C83.8799 31.848 83.9459 31.644 83.9699 31.38C84.0059 31.116 84.0239 30.756 84.0239 30.3V27.906C84.0239 26.478 83.9879 25.608 83.9159 25.296C83.8799 25.14 83.8319 25.014 83.7719 24.918C83.7239 24.81 83.6459 24.732 83.5379 24.684C83.4299 24.624 83.2919 24.588 83.1239 24.576C82.9559 24.552 82.7399 24.54 82.4759 24.54V23.964L85.3559 23.28L85.5719 25.062H85.6439C86.0999 24.498 86.6339 24.06 87.2459 23.748C87.8579 23.436 88.5239 23.28 89.2439 23.28C89.7959 23.28 90.2999 23.37 90.7559 23.55C91.2119 23.73 91.5599 23.976 91.7999 24.288C92.0039 24.564 92.1479 24.924 92.2319 25.368C92.3159 25.8 92.3579 26.4 92.3579 27.168V30.174C92.3579 30.666 92.3699 31.056 92.3939 31.344C92.4299 31.62 92.4959 31.836 92.5919 31.992C92.6879 32.136 92.8319 32.232 93.0239 32.28C93.2279 32.328 93.4919 32.364 93.8159 32.388V33H89.1539V32.388C89.4899 32.376 89.7539 32.346 89.9459 32.298C90.1499 32.238 90.2999 32.136 90.3959 31.992C90.5039 31.848 90.5699 31.644 90.5939 31.38C90.6299 31.104 90.6479 30.744 90.6479 30.3V27.924C90.6479 27.24 90.6119 26.664 90.5399 26.196C90.4679 25.728 90.3479 25.35 90.1799 25.062C90.0239 24.774 89.8139 24.57 89.5499 24.45C89.2859 24.318 88.9679 24.252 88.5959 24.252C88.0559 24.252 87.5579 24.396 87.1019 24.684C86.6579 24.96 86.3099 25.344 86.0579 25.836C85.9979 25.956 85.9439 26.07 85.8959 26.178C85.8599 26.286 85.8299 26.412 85.8059 26.556C85.7819 26.7 85.7639 26.868 85.7519 27.06C85.7399 27.24 85.7339 27.474 85.7339 27.762V30.174Z" fill="#EEEEEE"/>
<path d="M104.972 13.436C104.972 13.532 104.912 13.808 104.792 14.264C104.672 14.696 104.528 15.2 104.36 15.776C104.192 16.352 104 16.952 103.784 17.576C103.592 18.176 103.424 18.68 103.28 19.088C103.232 19.208 103.184 19.34 103.136 19.484C103.088 19.628 102.968 19.7 102.776 19.7C102.632 19.7 102.512 19.652 102.416 19.556C102.32 19.436 102.248 19.304 102.2 19.16C102.152 18.992 102.116 18.836 102.092 18.692C102.092 18.524 102.092 18.392 102.092 18.296C102.092 18.128 102.164 17.756 102.308 17.18C102.452 16.604 102.632 16.004 102.848 15.38C103.064 14.756 103.304 14.204 103.568 13.724C103.832 13.22 104.096 12.968 104.36 12.968C104.528 12.968 104.672 13.016 104.792 13.112C104.912 13.208 104.972 13.316 104.972 13.436ZM105.188 28.52C105.188 28.952 104.984 29.228 104.576 29.348C104.288 29.42 103.916 29.564 103.46 29.78C103.004 29.972 102.524 30.176 102.02 30.392C101.54 30.584 101.072 30.764 100.616 30.932C100.16 31.076 99.776 31.148 99.464 31.148C98.936 31.148 98.504 31.064 98.168 30.896C97.832 30.728 97.664 30.488 97.664 30.176C97.664 29.768 97.736 29.432 97.88 29.168C98.024 28.88 98.18 28.628 98.348 28.412C98.348 28.388 98.264 28.352 98.096 28.304C97.928 28.256 97.748 28.184 97.556 28.088C97.364 27.992 97.184 27.884 97.016 27.764C96.848 27.644 96.764 27.5 96.764 27.332C96.764 26.9 96.992 26.408 97.448 25.856C97.928 25.304 98.456 24.776 99.032 24.272C99.632 23.768 100.196 23.336 100.724 22.976C101.276 22.616 101.612 22.412 101.732 22.364C101.924 22.268 102.164 22.172 102.452 22.076C102.74 21.956 102.944 21.896 103.064 21.896C103.376 21.896 103.532 22.064 103.532 22.4C103.532 22.592 103.508 22.796 103.46 23.012C103.412 23.204 103.292 23.3 103.1 23.3C102.956 23.3 102.848 23.288 102.776 23.264C102.704 23.216 102.644 23.192 102.596 23.192C102.452 23.192 102.26 23.252 102.02 23.372C101.804 23.468 101.612 23.576 101.444 23.696C101.228 23.864 100.976 24.08 100.688 24.344C100.4 24.584 100.112 24.836 99.824 25.1C99.536 25.364 99.272 25.64 99.032 25.928C98.792 26.192 98.6 26.444 98.456 26.684C98.504 26.708 98.588 26.744 98.708 26.792C98.852 26.816 98.96 26.828 99.032 26.828C99.128 26.828 99.248 26.78 99.392 26.684C99.536 26.588 99.68 26.492 99.824 26.396C99.992 26.276 100.16 26.168 100.328 26.072C100.52 25.976 100.688 25.928 100.832 25.928C101.096 25.928 101.288 26.012 101.408 26.18C101.528 26.324 101.588 26.432 101.588 26.504C101.588 26.912 101.408 27.296 101.048 27.656C100.688 28.016 100.34 28.292 100.004 28.484C99.932 28.676 99.896 28.808 99.896 28.88C99.896 29.096 100.016 29.204 100.256 29.204C100.424 29.204 100.676 29.132 101.012 28.988C101.372 28.82 101.756 28.652 102.164 28.484C102.596 28.292 103.004 28.124 103.388 27.98C103.796 27.812 104.144 27.728 104.432 27.728C104.672 27.728 104.852 27.824 104.972 28.016C105.116 28.208 105.188 28.376 105.188 28.52ZM100.508 37.556C100.508 37.988 100.448 38.552 100.328 39.248C100.208 39.944 100.088 40.616 99.968 41.264C99.824 42.032 99.656 42.824 99.464 43.64C99.416 43.76 99.296 43.868 99.104 43.964C98.936 44.084 98.732 44.144 98.492 44.144C98.348 44.144 98.24 44.096 98.168 44C98.096 43.904 98.036 43.784 97.988 43.64C97.964 43.52 97.952 43.4 97.952 43.28C97.952 43.16 97.952 43.076 97.952 43.028C97.952 42.644 97.988 42.212 98.06 41.732C98.156 41.276 98.264 40.784 98.384 40.256C98.504 39.752 98.624 39.236 98.744 38.708C98.864 38.18 98.96 37.652 99.032 37.124C99.056 36.86 99.116 36.548 99.212 36.188C99.332 35.828 99.548 35.648 99.86 35.648C100.172 35.648 100.352 35.828 100.4 36.188C100.472 36.572 100.508 37.028 100.508 37.556Z" fill="#EEEEEE"/>
<path d="M124.012 30.282L126.82 22.47C126.988 22.002 127.108 21.63 127.18 21.354C127.252 21.078 127.288 20.838 127.288 20.634C127.288 20.322 127.186 20.112 126.982 20.004C126.79 19.884 126.442 19.824 125.938 19.824V19.14H130.312V19.824C129.76 19.824 129.34 19.938 129.052 20.166C128.776 20.394 128.542 20.766 128.35 21.282L123.832 33.18H123.202L119.746 22.938L115.912 33.18H115.282L111.538 22.848C111.322 22.272 111.124 21.792 110.944 21.408C110.776 21.012 110.59 20.7 110.386 20.472C110.194 20.244 109.972 20.082 109.72 19.986C109.468 19.89 109.162 19.842 108.802 19.842V19.14H114.67V19.842C114.058 19.842 113.626 19.896 113.374 20.004C113.134 20.112 113.014 20.322 113.014 20.634C113.014 20.79 113.038 20.97 113.086 21.174C113.134 21.378 113.206 21.618 113.302 21.894L116.038 30.228L118.252 24C118.42 23.532 118.582 23.1 118.738 22.704C118.906 22.296 119.038 21.93 119.134 21.606C118.966 21.258 118.81 20.97 118.666 20.742C118.534 20.514 118.396 20.334 118.252 20.202C118.12 20.07 117.976 19.98 117.82 19.932C117.676 19.872 117.52 19.842 117.352 19.842V19.14H122.86V19.842C122.512 19.842 122.23 19.854 122.014 19.878C121.798 19.902 121.63 19.944 121.51 20.004C121.402 20.052 121.324 20.124 121.276 20.22C121.24 20.316 121.222 20.43 121.222 20.562C121.222 20.742 121.252 20.964 121.312 21.228C121.384 21.48 121.48 21.804 121.6 22.2L124.012 30.282ZM134.324 27.672C133.64 27.936 133.058 28.194 132.578 28.446C132.11 28.698 131.732 28.95 131.444 29.202C131.156 29.454 130.946 29.706 130.814 29.958C130.694 30.21 130.634 30.468 130.634 30.732C130.634 31.128 130.766 31.452 131.03 31.704C131.294 31.956 131.642 32.082 132.074 32.082C132.386 32.082 132.674 32.004 132.938 31.848C133.214 31.692 133.454 31.482 133.658 31.218C133.862 30.942 134.024 30.624 134.144 30.264C134.264 29.892 134.324 29.502 134.324 29.094V27.672ZM134.324 26.898V26.16C134.324 24.696 133.7 23.964 132.452 23.964C132.248 23.964 132.074 23.982 131.93 24.018C131.786 24.054 131.666 24.114 131.57 24.198C131.474 24.282 131.384 24.402 131.3 24.558C131.228 24.714 131.156 24.906 131.084 25.134C130.952 25.482 130.82 25.716 130.688 25.836C130.568 25.944 130.388 25.998 130.148 25.998C129.548 25.998 129.248 25.698 129.248 25.098C129.248 24.522 129.554 24.078 130.166 23.766C130.778 23.442 131.648 23.28 132.776 23.28C133.976 23.28 134.828 23.496 135.332 23.928C135.836 24.348 136.088 25.068 136.088 26.088V30.12C136.088 31.488 136.358 32.172 136.898 32.172C137.066 32.172 137.228 32.154 137.384 32.118C137.54 32.07 137.672 31.956 137.78 31.776L138.032 32.208C137.888 32.484 137.624 32.718 137.24 32.91C136.856 33.09 136.454 33.18 136.034 33.18C135.506 33.18 135.11 33.012 134.846 32.676C134.594 32.34 134.468 31.866 134.468 31.254H134.378C134.066 31.842 133.634 32.31 133.082 32.658C132.53 32.994 131.918 33.162 131.246 33.162C130.49 33.162 129.896 32.97 129.464 32.586C129.032 32.202 128.816 31.686 128.816 31.038C128.816 30.75 128.864 30.474 128.96 30.21C129.068 29.946 129.236 29.694 129.464 29.454C129.692 29.214 129.992 28.98 130.364 28.752C130.736 28.512 131.192 28.272 131.732 28.032L134.324 26.898ZM141.825 30.138C141.825 30.63 141.837 31.02 141.861 31.308C141.885 31.596 141.945 31.818 142.041 31.974C142.149 32.118 142.299 32.214 142.491 32.262C142.683 32.31 142.953 32.346 143.301 32.37V33H138.513V32.37C138.861 32.358 139.137 32.328 139.341 32.28C139.545 32.22 139.701 32.118 139.809 31.974C139.917 31.83 139.983 31.626 140.007 31.362C140.043 31.086 140.061 30.72 140.061 30.264V28.158C140.061 27.342 140.049 26.706 140.025 26.25C140.013 25.794 139.953 25.458 139.845 25.242C139.749 25.026 139.593 24.9 139.377 24.864C139.161 24.816 138.861 24.792 138.477 24.792V24.162L141.627 23.478L141.879 25.71H141.951C142.107 25.35 142.299 25.02 142.527 24.72C142.767 24.42 143.025 24.168 143.301 23.964C143.577 23.748 143.865 23.58 144.165 23.46C144.465 23.34 144.771 23.28 145.083 23.28C145.467 23.28 145.767 23.376 145.983 23.568C146.211 23.748 146.325 23.994 146.325 24.306C146.325 24.594 146.235 24.822 146.055 24.99C145.875 25.146 145.617 25.224 145.281 25.224C145.089 25.224 144.927 25.2 144.795 25.152C144.663 25.104 144.543 25.056 144.435 25.008C144.339 24.948 144.243 24.894 144.147 24.846C144.063 24.798 143.967 24.774 143.859 24.774C143.535 24.774 143.211 24.984 142.887 25.404C142.563 25.812 142.311 26.334 142.131 26.97C142.035 27.318 141.957 27.714 141.897 28.158C141.849 28.59 141.825 29.046 141.825 29.526V30.138ZM154.403 31.488H154.331C153.899 32.1 153.437 32.538 152.945 32.802C152.465 33.054 151.895 33.18 151.235 33.18C150.551 33.18 149.921 33.06 149.345 32.82C148.781 32.568 148.289 32.226 147.869 31.794C147.461 31.35 147.137 30.822 146.897 30.21C146.669 29.598 146.555 28.932 146.555 28.212C146.555 27.504 146.669 26.85 146.897 26.25C147.137 25.638 147.461 25.116 147.869 24.684C148.289 24.24 148.787 23.898 149.363 23.658C149.939 23.406 150.563 23.28 151.235 23.28C151.811 23.28 152.321 23.376 152.765 23.568C153.221 23.76 153.659 24.066 154.079 24.486V22.65C154.079 21.966 154.067 21.396 154.043 20.94C154.031 20.484 154.007 20.172 153.971 20.004C153.911 19.74 153.743 19.554 153.467 19.446C153.191 19.338 152.741 19.284 152.117 19.284V18.744L155.807 18.06V28.446C155.807 29.274 155.813 29.958 155.825 30.498C155.837 31.026 155.873 31.404 155.933 31.632C155.969 31.776 156.011 31.896 156.059 31.992C156.119 32.088 156.197 32.166 156.293 32.226C156.401 32.274 156.539 32.31 156.707 32.334C156.887 32.358 157.115 32.37 157.391 32.37V32.982L154.403 33.18V31.488ZM154.043 27.51C154.043 26.886 154.007 26.412 153.935 26.088C153.875 25.764 153.749 25.482 153.557 25.242C153.281 24.882 152.927 24.612 152.495 24.432C152.075 24.24 151.655 24.144 151.235 24.144C150.371 24.144 149.711 24.504 149.255 25.224C148.811 25.932 148.589 26.898 148.589 28.122C148.589 28.758 148.643 29.334 148.751 29.85C148.871 30.366 149.039 30.81 149.255 31.182C149.483 31.542 149.759 31.824 150.083 32.028C150.419 32.22 150.803 32.316 151.235 32.316C151.451 32.316 151.667 32.292 151.883 32.244C152.111 32.196 152.327 32.124 152.531 32.028C152.747 31.92 152.945 31.8 153.125 31.668C153.305 31.524 153.455 31.362 153.575 31.182C153.743 30.918 153.863 30.6 153.935 30.228C154.007 29.856 154.043 29.346 154.043 28.698V27.51Z" fill="#EEEEEE"/>
</svg>
